<svg xmlns="http://www.w3.org/2000/svg" version="1.1" xmlns:xlink="http://www.w3.org/1999/xlink" xmlns:svgjs="http://svgjs.dev/svgjs" width="1000" height="860" viewBox="0 0 1000 860"><g transform="matrix(1,0,0,1,0.4488490503966318,0.34817813765181427)"><svg viewBox="0 0 287 247" data-background-color="#ffffff" preserveAspectRatio="xMidYMid meet" height="860" width="1000" xmlns="http://www.w3.org/2000/svg" xmlns:xlink="http://www.w3.org/1999/xlink"><g id="tight-bounds" transform="matrix(1,0,0,1,-0.12881967746383793,-0.09999999999999432)"><svg viewBox="0 0 287.2576214925161 247.2" height="247.2" width="287.2576214925161"><g><svg viewBox="0 0 395.52 340.36536086318347" height="247.2" width="287.2576214925161"><g transform="matrix(1,0,0,1,0,183.95343124343606)"><svg viewBox="0 0 395.52 156.4119296197474" height="156.4119296197474" width="395.52"><g id="textblocktransform"><svg viewBox="0 0 395.52 156.4119296197474" height="156.4119296197474" width="395.52" id="textblock"><g><svg viewBox="0 0 395.52 92.4806680584551" height="92.4806680584551" width="395.52"><g transform="matrix(1,0,0,1,0,0)"><svg width="395.52" viewBox="2.299999952316284 -38.25 167.62998962402344 39.20000076293945" height="92.4806680584551" data-palette-color="#2b2b2b"><path d="M5.55 0.1Q4.55 0.1 3.83-0.35 3.1-0.8 3.1-1.6L3.1-1.6Q4.2-2.7 4.2-7.45L4.2-7.45Q4.2-10.3 3.75-15.75L3.75-15.75Q3.25-20.95 3.25-23.95L3.25-23.95 3.35-26.7Q3.4-27.9 3.4-29.45L3.4-29.45Q3.4-30.85 2.9-33L2.9-33Q2.3-35.25 2.3-36.15L2.3-36.15Q2.3-37.9 6.15-37.9L6.15-37.9 6.9-37.9Q9.6-37.9 11.6-36.25L11.6-36.25Q13.2-34.85 14.3-32.2L14.3-32.2Q15.05-30.4 15.6-27.2L15.6-27.2Q15.9-24.4 15.9-22.8L15.9-22.8 15.9-21.2 15.9-18.85Q15.8-18.65 15.8-18.45L15.8-18.45Q15.8-18.05 15.85-17.85L15.85-17.85Q15.9-17.65 15.9-17.35L15.9-17.35Q15.9-15.75 15.43-13.53 14.95-11.3 14.05-9L14.05-9Q11.8-3.5 9-1.2L9-1.2Q7.35 0.1 5.55 0.1L5.55 0.1ZM6.6-2.8Q8.45-3.95 9.85-6.13 11.25-8.3 12-10.95L12-10.95Q13.35-15.85 13.35-20.85L13.35-20.85Q13.35-23.55 12.85-26.75L12.85-26.75Q12.3-29.85 10.5-32.35L10.5-32.35Q9.65-33.55 8.35-34.23 7.05-34.9 5.4-34.9L5.4-34.9 5.4-34.85Q5.4-30.35 6-21.25L6-21.25Q6.6-12.2 6.6-7.55L6.6-7.55 6.6-2.8ZM24.3 0.65Q23.65 0.65 23.12 0.2 22.6-0.25 22.55-0.9L22.55-0.9 22.55-2.2 22.55-3.2Q22.5-3.65 22.5-4.25L22.5-4.25Q22.5-5.3 22.35-7.45L22.35-7.45 22.25-10.65Q22.25-13.1 22.4-17.95L22.4-17.95Q22.6-22.3 22.6-25.25L22.6-25.25Q22.6-25.95 22.45-27.35L22.45-27.35Q22.3-28.8 22.3-29.45L22.3-29.45Q22.3-33 24.4-33L24.4-33Q26.05-33 28.22-32.35 30.4-31.7 30.4-30.8L30.4-30.8Q30.4-30.3 29.97-29.88 29.55-29.45 28.95-29.2L28.95-29.2Q26.85-29.95 25.15-30.2L25.15-30.2Q25.2-29.45 25.2-28.05L25.2-28.05Q25.2-26.05 25.15-24.45L25.15-24.45Q25-22.05 25-20.85L25-20.85 25.15-20.05 25.95-20.1Q26.35-20.15 26.95-20.15L26.95-20.15Q29.35-20.15 29.35-18.75L29.35-18.75Q29.35-18.2 28.9-17.82 28.45-17.45 27.75-17.45L27.75-17.45Q26.85-17.45 26.35-17.55L26.35-17.55 25.1-17.55Q25.2-16.25 25.2-13.75L25.2-13.75Q25.2-11.25 25.15-9.25L25.15-9.25Q25-6.2 25-4.7L25-4.7Q25-1.9 25.1-1.9L25.1-1.9 26.75-1.95Q27.6-2 28.8-2L28.8-2Q30.7-2 30.7-0.8L30.7-0.8Q30.7-0.1 30.07 0.28 29.45 0.65 28.55 0.65L28.55 0.65 24.3 0.65ZM48 0.85Q46.85 0.85 45.55-1.65L45.55-1.65Q43.6-5.4 41.7-14L41.7-14Q41.15-16.35 40.8-18.35L40.8-18.35Q39-14.75 39-9.65L39-9.65 39-0.4Q39 0.75 38 0.75L38 0.75Q37.25 0.75 36.77 0.33 36.3-0.1 36.3-0.85L36.3-0.85 36.3-16Q36.3-18.2 36.8-24.1L36.8-24.1Q37.3-29.25 37.3-32.2L37.3-32.2Q37.7-33.15 38.75-33.15L38.75-33.15Q39.4-33.15 39.85-32.7 40.3-32.25 40.3-31.6L40.3-31.6 40.3-31.45Q39.65-30.35 39.65-22.35L39.65-22.35 39.65-20.55 41.5-24.2Q43.2-27.75 44.7-30.3L44.7-30.3Q46.1-32.8 46.75-32.8L46.75-32.8Q47.55-32.8 48.12-32.45 48.7-32.1 48.7-31.45L48.7-31.45 47.5-29.45Q43.75-23.4 43.3-22.45L43.3-22.45Q43.3-21.6 43.25-20.95L43.25-20.95 43.2-19.45Q43.2-17.3 44.92-11.43 46.65-5.55 47.8-3.65L47.8-3.65 48.45-2.75Q49.4-1.45 49.4-0.45L49.4-0.45Q49.4 0.1 48.97 0.48 48.55 0.85 48 0.85L48 0.85ZM63.54 0.45Q62.39 0.45 61.84 0.1 61.29-0.25 61.29-1.2L61.29-1.2Q61.29-2.7 60.79-6.3L60.79-6.3 60.59-7.35 55.64-8.1Q55.34-6.95 54.79-3.45L54.79-3.45Q54.49-1 53.84-0.2L53.84-0.2Q53.49 0.25 52.84 0.25L52.84 0.25Q52.24 0.25 51.74-0.13 51.24-0.5 51.24-1.05L51.24-1.05 51.34-1.3 51.39-1.5Q54.69-14.35 56.39-26.85L56.39-26.85Q56.39-27.05 56.44-27.53 56.49-28 56.54-28.9L56.54-28.9Q56.69-30.75 56.87-31.85 57.04-32.95 57.44-33.5L57.44-33.5 59.14-33.5Q59.84-33.5 60.34-33.18 60.84-32.85 60.84-32.25L60.84-32.25Q60.84-28.45 61.89-20.95L61.89-20.95Q62.89-13.25 62.89-10.15L62.89-10.15Q62.89-9.85 63.14-8.6L63.14-8.6Q63.39-7.45 63.39-7.1L63.39-7.1Q63.39-6.75 63.89-4.1L63.89-4.1Q64.34-1.7 64.34-1L64.34-1 64.34-0.95Q64.34 0.15 63.54 0.45L63.54 0.45ZM60.24-9.15Q60.09-9.9 60.09-11L60.09-11Q60.09-15.5 59.29-22.5L59.29-22.5 58.79-27.7Q56.64-15.95 55.84-9.95L55.84-9.95Q56.59-9.45 60.24-9.15L60.24-9.15ZM79.44 0.25Q78.89 0.25 78.56-0.23 78.24-0.7 78.24-1.4L78.24-1.4 78.34-9.8Q78.49-15.9 78.49-19.25L78.49-19.25Q78.49-30.9 77.19-37.1L77.19-37.1Q77.94-38.25 79.09-38.25L79.09-38.25Q80.94-38.25 82.46-37.43 83.99-36.6 84.99-35.2L84.99-35.2Q86.94-32.3 86.94-28.7L86.94-28.7Q86.94-24.95 85.34-22 83.74-19.05 80.69-17.4L80.69-17.4 80.79-12.35 80.89-9.7Q80.94-8.85 80.94-7.25L80.94-7.25Q81.09-3.9 81.09-1.8L81.09-1.8Q81.09-0.85 80.69-0.3 80.29 0.25 79.44 0.25L79.44 0.25ZM80.59-19.8Q82.54-21.65 83.46-23.68 84.39-25.7 84.39-28.25L84.39-28.25 84.39-28.3Q84.39-29.45 84.14-31.2L84.14-31.2Q83.99-31.8 83.59-32.4 83.19-33 83.14-33.1L83.14-33.1Q82.79-33.6 81.29-34.65L81.29-34.65 79.99-35.6Q79.99-33.05 80.29-27.7L80.29-27.7 80.59-19.8ZM98.04 0.95Q96.74 0.95 95.64 0.13 94.54-0.7 93.84-2.1L93.84-2.1Q92.39-5.15 92.04-8.75L92.04-8.75Q91.59-12.15 91.59-15.3L91.59-15.3Q91.59-15.9 91.64-16.3L91.64-16.3 91.64-17.2Q91.64-17.45 91.59-17.45L91.59-17.45 91.59-18.35 91.64-21.85Q91.69-23.45 92.04-26.95L92.04-26.95Q92.29-29.35 93.19-31.6L93.19-31.6Q93.54-32.6 94.09-33.13 94.64-33.65 95.34-33.65L95.34-33.65Q97.34-33.65 98.94-32.93 100.54-32.2 101.64-30.9L101.64-30.9Q102.64-29.65 103.34-27.83 104.04-26 104.34-23.95L104.34-23.95Q104.64-21.85 104.64-19.5L104.64-19.5 104.64-19.1Q104.64-17.55 104.69-16.3L104.69-16.3 104.74-13.45Q104.74 0.95 98.04 0.95L98.04 0.95ZM97.84-1.15Q98.74-1.15 99.49-1.88 100.24-2.6 100.64-3.85L100.64-3.85Q101.59-6.4 101.79-9.35L101.79-9.35Q102.04-11.9 102.04-13.75L102.04-13.75Q102.04-16 101.69-19.65L101.69-19.65Q101.39-23.5 101.39-25.4L101.39-25.4 101.39-26.3Q101.29-28.2 100.11-29.6 98.94-31 97.24-31L97.24-31Q95.54-31 94.99-29.05L94.99-29.05Q94.49-27.5 94.49-25.05L94.49-25.05Q94.49-24.1 94.54-23.45L94.54-23.45 94.54-22.1 94.44-19.8Q94.34-18.75 94.34-17.5L94.34-17.5Q94.34-14.8 94.49-12.15L94.49-12.15Q94.69-8.4 95.49-4.85L95.49-4.85Q96.29-1.15 97.84-1.15L97.84-1.15ZM123.83 0.15Q123.23 0.15 122.93-0.18 122.63-0.5 122.48-1.3L122.48-1.3 122.18-2.25 122.18-2.35 122.18-2.5Q122.18-4.15 118.76-13.75 115.33-23.35 113.38-27.95L113.38-27.95 113.38-2.8 113.58-2.45Q113.63-2.35 113.78-2.1 113.93-1.85 113.93-1.6L113.93-1.6Q113.93-0.95 113.48-0.5 113.03-0.05 112.38-0.05L112.38-0.05Q110.78-0.05 110.78-3.1L110.78-3.1 110.73-11.65Q110.68-15.5 110.68-20.25L110.68-20.25Q110.68-21.85 110.83-24.9L110.83-24.9Q110.98-28.05 110.98-29.55L110.98-29.55Q110.98-31.9 112.78-33.25L112.78-33.25 112.78-32.95Q113.08-33.05 113.18-33.05L113.18-33.05Q114.33-33.05 116.08-29.05L116.08-29.05Q117.48-25.85 118.61-22.3 119.73-18.75 121.58-12.2L121.58-12.2 122.08-10.4Q123.23-6.35 123.83-4.6L123.83-4.6Q124.83-15.35 124.83-30L124.83-30 124.83-30.65Q124.78-30.95 124.78-31.3L124.78-31.3Q124.78-32.8 125.98-32.8L125.98-32.8Q126.68-32.8 127.06-32.25 127.43-31.7 127.43-30.85L127.43-30.85 127.43-27.1Q127.33-19.4 126.83-10.4 126.33-1.4 125.63-0.25L125.63-0.25Q124.18 0.15 123.83 0.15L123.83 0.15ZM135.03 0.7Q134.13 0.55 133.51 0.05 132.88-0.45 132.78-1.25L132.78-1.25 133.33-2.1Q133.63-2.1 134.28-1.9L134.28-1.9Q135.03-1.75 135.43-1.75L135.43-1.75Q136.33-1.75 137.06-2.55 137.78-3.35 138.13-4.65L138.13-4.65Q138.78-7.05 138.78-8.95L138.78-8.95Q138.78-12.25 136.68-15.9L136.68-15.9 136.13-16.85Q135.18-18.5 134.53-19.8 133.88-21.1 133.43-22.6L133.43-22.6Q132.83-24.55 132.83-26.5L132.83-26.5Q132.83-28.7 133.83-31.1L133.83-31.1Q134.33-32.25 135.26-32.98 136.18-33.7 137.33-33.7L137.33-33.7Q138.23-33.7 139.01-33.13 139.78-32.55 139.78-31.75L139.78-31.75Q139.78-31.3 139.43-31.05 139.08-30.8 138.58-30.8L138.58-30.8Q138.03-30.8 137.53-31.1L137.53-31.1Q136.43-31.05 135.78-29.15L135.78-29.15Q135.23-27.4 135.23-26.25L135.23-26.25Q135.23-24.8 135.68-23.33 136.13-21.85 136.83-20.65L136.83-20.65 137.93-18.65 139.68-15.35Q140.38-13.95 140.81-12.1 141.23-10.25 141.23-8.35L141.23-8.35Q141.23-5.3 139.83-2.55L139.83-2.55Q139.13-1.15 137.86-0.3 136.58 0.55 135.03 0.55L135.03 0.55 135.03 0.7ZM148.78 0.65Q148.13 0.65 147.6 0.2 147.08-0.25 147.03-0.9L147.03-0.9 147.03-2.2 147.03-3.2Q146.98-3.65 146.98-4.25L146.98-4.25Q146.98-5.3 146.83-7.45L146.83-7.45 146.73-10.65Q146.73-13.1 146.88-17.95L146.88-17.95Q147.08-22.3 147.08-25.25L147.08-25.25Q147.08-25.95 146.93-27.35L146.93-27.35Q146.78-28.8 146.78-29.45L146.78-29.45Q146.78-33 148.88-33L148.88-33Q150.53-33 152.7-32.35 154.88-31.7 154.88-30.8L154.88-30.8Q154.88-30.3 154.45-29.88 154.03-29.45 153.43-29.2L153.43-29.2Q151.33-29.95 149.63-30.2L149.63-30.2Q149.68-29.45 149.68-28.05L149.68-28.05Q149.68-26.05 149.63-24.45L149.63-24.45Q149.48-22.05 149.48-20.85L149.48-20.85 149.63-20.05 150.43-20.1Q150.83-20.15 151.43-20.15L151.43-20.15Q153.83-20.15 153.83-18.75L153.83-18.75Q153.83-18.2 153.38-17.82 152.93-17.45 152.23-17.45L152.23-17.45Q151.33-17.45 150.83-17.55L150.83-17.55 149.58-17.55Q149.68-16.25 149.68-13.75L149.68-13.75Q149.68-11.25 149.63-9.25L149.63-9.25Q149.48-6.2 149.48-4.7L149.48-4.7Q149.48-1.9 149.58-1.9L149.58-1.9 151.23-1.95Q152.08-2 153.28-2L153.28-2Q155.18-2 155.18-0.8L155.18-0.8Q155.18-0.1 154.55 0.28 153.93 0.65 153.03 0.65L153.03 0.65 148.78 0.65ZM168.38 0.8Q166.58 0.2 163.93 0.2L163.93 0.2Q163.13 0.7 162.23 0.7L162.23 0.7Q161.63 0.7 161.2 0.18 160.78-0.35 160.78-0.95L160.78-0.95Q160.78-5.15 161.13-12.15L161.13-12.15Q161.43-19.6 161.43-23.3L161.43-23.3 161.43-23.65Q161.13-26.8 161.13-28.35L161.13-28.35Q161.13-33.1 162.88-33.1L162.88-33.1Q163.38-33.1 163.75-32.73 164.13-32.35 164.13-31.85L164.13-31.85Q164.13-31.25 163.98-29.95L163.98-29.95Q163.83-28.7 163.83-28.05L163.83-28.05Q163.83-24.7 163.88-22L163.88-22Q163.93-19.35 163.93-16L163.93-16Q163.68-15.25 163.68-13.9L163.68-13.9 163.68-13.3 163.58-9.35Q163.48-7.6 163.48-5.35L163.48-5.35Q163.48-1.9 165.13-1.9L165.13-1.9Q165.23-1.9 165.45-1.93 165.68-1.95 166.08-1.95L166.08-1.95Q166.53-2 167.23-2L167.23-2Q169.93-2 169.93-0.5L169.93-0.5Q169.93 0 169.48 0.35 169.03 0.7 168.38 0.8L168.38 0.8Z" opacity="1" transform="matrix(1,0,0,1,0,0)" fill="#2b2b2b" class="undefined-text-0" data-fill-palette-color="primary" id="text-0"></path></svg></g></svg></g><g transform="matrix(1,0,0,1,75.54432000000001,114.31313425102294)"><svg viewBox="0 0 244.43135999999996 42.098795368724474" height="42.098795368724474" width="244.43135999999996"><g transform="matrix(1,0,0,1,0,0)"><svg width="244.43135999999996" viewBox="3.25 -35.0099983215332 203.25 35.0099983215332" height="42.098795368724474" data-palette-color="#f4a424"><path d="M10.25-35.01L10.25 0 3.25 0 3.25-35.01 10.25-35.01ZM14.69-24.51L14.69-24.51Q14.69-26.68 15.52-28.59 16.35-30.49 17.78-31.92 19.21-33.35 21.12-34.18 23.02-35.01 25.19-35.01L25.19-35.01 41.26-35.01 41.26-28 25.19-28Q24.46-28 23.83-27.73 23.19-27.47 22.71-26.99 22.24-26.51 21.97-25.88 21.7-25.24 21.7-24.51L21.7-24.51Q21.7-23.78 21.97-23.13 22.24-22.49 22.71-22.01 23.19-21.53 23.83-21.26 24.46-21 25.19-21L25.19-21 32.2-21Q34.37-21 36.29-20.18 38.21-19.36 39.63-17.93 41.06-16.5 41.88-14.59 42.7-12.67 42.7-10.5L42.7-10.5Q42.7-8.33 41.88-6.42 41.06-4.52 39.63-3.09 38.21-1.66 36.29-0.83 34.37 0 32.2 0L32.2 0 16.65 0 16.65-7.01 32.2-7.01Q32.93-7.01 33.57-7.28 34.2-7.54 34.68-8.02 35.15-8.5 35.42-9.13 35.69-9.77 35.69-10.5L35.69-10.5Q35.69-11.23 35.42-11.87 35.15-12.5 34.68-12.98 34.2-13.45 33.57-13.72 32.93-13.99 32.2-13.99L32.2-13.99 25.19-13.99Q23.02-13.99 21.12-14.82 19.21-15.65 17.78-17.08 16.35-18.51 15.52-20.42 14.69-22.34 14.69-24.51ZM54.29-35.01L54.29 0 47.29 0 47.29-35.01 54.29-35.01ZM102.82-17.5L102.82-17.5Q102.82-15.09 102.2-12.85 101.58-10.62 100.43-8.68 99.28-6.74 97.7-5.14 96.11-3.54 94.16-2.39 92.2-1.25 89.97-0.62 87.73 0 85.32 0L85.32 0 74.77 0 74.77-35.01 85.32-35.01Q87.73-35.01 89.97-34.39 92.2-33.76 94.16-32.62 96.11-31.47 97.7-29.87 99.28-28.27 100.43-26.33 101.58-24.39 102.2-22.16 102.82-19.92 102.82-17.5ZM95.82-17.5L95.82-17.5Q95.82-19.68 95-21.58 94.18-23.49 92.75-24.91 91.32-26.34 89.41-27.17 87.49-28 85.32-28L85.32-28 81.83-28 81.83-7.01 85.32-7.01Q87.49-7.01 89.41-7.82 91.32-8.64 92.75-10.07 94.18-11.5 95-13.42 95.82-15.33 95.82-17.5ZM114.47-35.01L114.47 0 107.46 0 107.46-35.01 114.47-35.01ZM118.91-24.51L118.91-24.51Q118.91-26.68 119.74-28.59 120.57-30.49 121.99-31.92 123.42-33.35 125.33-34.18 127.23-35.01 129.4-35.01L129.4-35.01 145.47-35.01 145.47-28 129.4-28Q128.67-28 128.04-27.73 127.4-27.47 126.93-26.99 126.45-26.51 126.18-25.88 125.91-25.24 125.91-24.51L125.91-24.51Q125.91-23.78 126.18-23.13 126.45-22.49 126.93-22.01 127.4-21.53 128.04-21.26 128.67-21 129.4-21L129.4-21 136.41-21Q138.58-21 140.5-20.18 142.42-19.36 143.84-17.93 145.27-16.5 146.09-14.59 146.91-12.67 146.91-10.5L146.91-10.5Q146.91-8.33 146.09-6.42 145.27-4.52 143.84-3.09 142.42-1.66 140.5-0.83 138.58 0 136.41 0L136.41 0 120.86 0 120.86-7.01 136.41-7.01Q137.14-7.01 137.78-7.28 138.41-7.54 138.89-8.02 139.36-8.5 139.63-9.13 139.9-9.77 139.9-10.5L139.9-10.5Q139.9-11.23 139.63-11.87 139.36-12.5 138.89-12.98 138.41-13.45 137.78-13.72 137.14-13.99 136.41-13.99L136.41-13.99 129.4-13.99Q127.23-13.99 125.33-14.82 123.42-15.65 121.99-17.08 120.57-18.51 119.74-20.42 118.91-22.34 118.91-24.51ZM158.5-35.01L158.5 0 151.5 0 151.5-35.01 158.5-35.01ZM193-35.01L193 0 185.5 0 172-23.05 172 0 164.99 0 164.99-35.01 172.49-35.01 185.99-11.94 185.99-35.01 193-35.01ZM206.5-35.01L206.5 0 199.49 0 199.49-35.01 206.5-35.01Z" opacity="1" transform="matrix(1,0,0,1,0,0)" fill="#f4a424" class="undefined-text-1" data-fill-palette-color="secondary" id="text-1"></path></svg></g></svg></g></svg></g></svg></g><g transform="matrix(1,0,0,1,140.5588597164689,0)"><svg viewBox="0 0 114.40228056706216 162.12096505086822" height="162.12096505086822" width="114.40228056706216"><g><svg xmlns="http://www.w3.org/2000/svg" xmlns:xlink="http://www.w3.org/1999/xlink" version="1.1" x="8" y="0" viewBox="22.744998931884766 5.095999717712402 54.5099983215332 89.80699920654297" enable-background="new 0 0 100 100" xml:space="preserve" height="162.12096505086822" width="98.40228056706216" class="icon-icon-0" data-fill-palette-color="accent" id="icon-0"><g fill="#f4a424" data-fill-palette-color="accent"><path d="M66.937 6.331c-0.546-0.745-1.421-1.235-2.415-1.235h-9.778c-0.885 0-1.672 0.39-2.221 1H35.475c-7.02 0-12.73 5.711-12.73 12.73v63.347c0 7.02 5.711 12.73 12.73 12.73h29.06c7.014 0 12.72-5.711 12.72-12.73V18.826C77.255 12.629 72.806 7.459 66.937 6.331zM71.255 82.174c0 3.711-3.015 6.73-6.72 6.73h-29.06c-3.711 0-6.73-3.02-6.73-6.73V18.826c0-3.711 3.019-6.73 6.73-6.73h29.06c3.706 0 6.72 3.019 6.72 6.73V82.174z" fill="#f4a424" data-fill-palette-color="accent"></path><path d="M65.183 65.587H34.817c-1.657 0-3 1.343-3 3s1.343 3 3 3h30.366c1.657 0 3-1.343 3-3S66.84 65.587 65.183 65.587z" fill="#f4a424" data-fill-palette-color="accent"></path><path d="M50 76.223c-2.692 0-4.882 2.19-4.882 4.882s2.19 4.882 4.882 4.882 4.882-2.19 4.882-4.882S52.692 76.223 50 76.223zM50 82.223c-0.617 0-1.118-0.502-1.118-1.118s0.501-1.118 1.118-1.118 1.118 0.502 1.118 1.118S50.617 82.223 50 82.223z" fill="#f4a424" data-fill-palette-color="accent"></path></g></svg></g></svg></g><g><rect width="86.42767046272695" height="8.340002085560917" y="152.7809629653073" x="254.96114028353105" fill="#f4a424" data-fill-palette-color="accent"></rect><rect width="86.42767046272695" height="8.340002085560917" y="152.7809629653073" x="54.13118925374195" fill="#f4a424" data-fill-palette-color="accent"></rect><rect width="86.42767046272695" height="8.340002085560917" y="136.1009587941855" x="254.96114028353105" fill="#f4a424" data-fill-palette-color="accent"></rect><rect width="86.42767046272695" height="8.340002085560917" y="136.1009587941855" x="54.13118925374195" fill="#f4a424" data-fill-palette-color="accent"></rect></g></svg></g><defs></defs></svg><rect width="287.2576214925161" height="247.2" fill="none" stroke="none" visibility="hidden"></rect></g></svg></g></svg>